<?xml version="1.0" encoding="UTF-8"?>
<svg xmlns="http://www.w3.org/2000/svg" xmlns:xlink="http://www.w3.org/1999/xlink" width="153px" height="40px" viewBox="0 0 153 40" version="1.1">
<defs>
<linearGradient id="linear0" gradientUnits="userSpaceOnUse" x1="1.022942" y1="0.500183" x2="0" y2="0.5" gradientTransform="matrix(65.632812,0,0,29.140625,0.464844,5.839844)">
<stop offset="0" style="stop-color:rgb(96.862745%,58.039216%,12.156863%);stop-opacity:1;"/>
<stop offset="0.291884" style="stop-color:rgb(100%,81.568627%,2.352941%);stop-opacity:1;"/>
<stop offset="0.406268" style="stop-color:rgb(65.490196%,79.215686%,50.196078%);stop-opacity:1;"/>
<stop offset="0.524034" style="stop-color:rgb(0%,71.372549%,77.254902%);stop-opacity:1;"/>
<stop offset="1" style="stop-color:rgb(0.784314%,67.058824%,77.254902%);stop-opacity:1;"/>
</linearGradient>
<linearGradient id="linear1" gradientUnits="userSpaceOnUse" x1="1.022942" y1="0.500339" x2="0" y2="0.5" gradientTransform="matrix(65.804688,0,0,39.929687,0.511719,0)">
<stop offset="0" style="stop-color:rgb(96.862745%,58.039216%,12.156863%);stop-opacity:1;"/>
<stop offset="0.291884" style="stop-color:rgb(100%,81.568627%,2.352941%);stop-opacity:1;"/>
<stop offset="0.406268" style="stop-color:rgb(65.490196%,79.215686%,50.196078%);stop-opacity:1;"/>
<stop offset="0.524034" style="stop-color:rgb(0%,71.372549%,77.254902%);stop-opacity:1;"/>
<stop offset="1" style="stop-color:rgb(0.784314%,67.058824%,77.254902%);stop-opacity:1;"/>
</linearGradient>
</defs>
<g id="surface1">
<path style=" stroke:none;fill-rule:evenodd;fill:rgb(8.627451%,6.666667%,21.960784%);fill-opacity:1;" d="M 152.640625 4.136719 C 152.640625 5.28125 151.707031 6.207031 150.554688 6.207031 C 149.402344 6.207031 148.46875 5.28125 148.46875 4.136719 C 148.46875 2.996094 149.402344 2.070312 150.554688 2.070312 C 151.707031 2.070312 152.640625 2.996094 152.640625 4.136719 "/>
<path style=" stroke:none;fill-rule:evenodd;fill:rgb(8.627451%,6.666667%,21.960784%);fill-opacity:1;" d="M 147.078125 4.136719 C 147.078125 5.28125 146.144531 6.207031 144.992188 6.207031 C 143.839844 6.207031 142.902344 5.28125 142.902344 4.136719 C 142.902344 2.996094 143.839844 2.070312 144.992188 2.070312 C 146.144531 2.070312 147.078125 2.996094 147.078125 4.136719 "/>
<path style=" stroke:none;fill-rule:evenodd;fill:rgb(8.627451%,6.666667%,21.960784%);fill-opacity:1;" d="M 98.460938 13.914062 C 98.273438 14.363281 98.015625 14.75 97.679688 15.078125 C 97.34375 15.402344 96.953125 15.660156 96.507812 15.839844 C 96.0625 16.023438 95.585938 16.113281 95.078125 16.113281 C 94.574219 16.113281 94.105469 16.019531 93.675781 15.828125 C 93.242188 15.640625 92.867188 15.382812 92.546875 15.054688 C 92.226562 14.726562 91.976562 14.339844 91.800781 13.890625 C 91.621094 13.441406 91.53125 12.957031 91.53125 12.441406 C 91.53125 11.921875 91.621094 11.4375 91.800781 10.980469 C 91.976562 10.523438 92.222656 10.128906 92.535156 9.792969 C 92.847656 9.457031 93.21875 9.191406 93.652344 8.996094 C 94.082031 8.796875 94.558594 8.699219 95.078125 8.699219 C 95.617188 8.699219 96.105469 8.792969 96.554688 8.984375 C 97 9.171875 97.386719 9.433594 97.714844 9.769531 C 98.039062 10.105469 98.292969 10.5 98.472656 10.957031 C 98.652344 11.414062 98.738281 11.90625 98.738281 12.441406 C 98.738281 12.972656 98.648438 13.464844 98.460938 13.914062 M 148.820312 9.136719 L 148.820312 13.605469 L 101.75 13.605469 C 101.8125 13.226562 101.851562 12.835938 101.851562 12.441406 C 101.851562 11.503906 101.683594 10.605469 101.359375 9.773438 C 101.023438 8.917969 100.535156 8.160156 99.910156 7.519531 C 99.296875 6.894531 98.570312 6.398438 97.746094 6.046875 C 96.921875 5.695312 96.023438 5.515625 95.078125 5.515625 C 94.121094 5.515625 93.210938 5.710938 92.378906 6.09375 C 91.582031 6.457031 90.878906 6.964844 90.285156 7.597656 C 89.945312 7.964844 89.648438 8.371094 89.394531 8.8125 L 88.496094 8.8125 C 88.199219 8.8125 87.878906 8.847656 87.535156 8.925781 C 87.195312 9 85.972656 9.273438 84.746094 10.5 C 84.144531 11.101562 83.765625 11.894531 83.496094 12.761719 C 83.230469 13.628906 83.09375 14.652344 83.09375 15.839844 L 83.09375 18.695312 C 83.09375 19.035156 83.363281 19.308594 83.695312 19.308594 L 85.617188 19.308594 C 85.949219 19.308594 86.21875 19.035156 86.21875 18.695312 L 86.21875 15.886719 C 86.21875 15.292969 86.269531 14.738281 86.363281 14.21875 C 86.460938 13.703125 86.636719 13.269531 86.890625 12.917969 C 87.230469 12.4375 87.75 12.144531 88.441406 12.042969 C 88.433594 12.175781 88.421875 12.304688 88.421875 12.441406 C 88.421875 13.367188 88.589844 14.257812 88.917969 15.085938 C 89.253906 15.929688 89.734375 16.675781 90.347656 17.300781 C 90.945312 17.914062 91.652344 18.402344 92.441406 18.75 C 93.261719 19.113281 94.148438 19.296875 95.078125 19.296875 C 95.980469 19.296875 96.851562 19.125 97.664062 18.792969 C 98.476562 18.460938 99.207031 17.984375 99.828125 17.375 C 100.015625 17.195312 100.183594 17 100.347656 16.800781 L 151.34375 16.800781 C 151.675781 16.800781 151.945312 16.523438 151.945312 16.183594 L 151.945312 9.136719 C 151.945312 8.800781 151.675781 8.523438 151.34375 8.523438 L 149.421875 8.523438 C 149.089844 8.523438 148.820312 8.800781 148.820312 9.136719 "/>
<path style=" stroke:none;fill-rule:evenodd;fill:rgb(8.627451%,6.666667%,21.960784%);fill-opacity:1;" d="M 91.265625 26.378906 L 91.265625 38.707031 C 91.265625 39.039062 90.996094 39.308594 90.660156 39.308594 L 88.742188 39.308594 C 88.410156 39.308594 88.136719 39.039062 88.136719 38.707031 L 88.136719 26.378906 L 83.699219 26.378906 C 83.367188 26.378906 83.09375 26.109375 83.09375 25.777344 L 83.09375 24.050781 C 83.09375 23.71875 83.367188 23.449219 83.699219 23.449219 L 95.703125 23.449219 C 96.039062 23.449219 96.308594 23.71875 96.308594 24.050781 L 96.308594 25.777344 C 96.308594 26.109375 96.039062 26.378906 95.703125 26.378906 Z M 91.265625 26.378906 "/>
<path style=" stroke:none;fill-rule:evenodd;fill:rgb(8.627451%,6.666667%,21.960784%);fill-opacity:1;" d="M 101.003906 32.867188 L 105.429688 32.867188 L 103.21875 26.871094 Z M 106.46875 35.6875 L 99.964844 35.6875 L 98.78125 38.914062 C 98.691406 39.152344 98.464844 39.308594 98.207031 39.308594 L 96.222656 39.308594 C 95.796875 39.308594 95.5 38.886719 95.652344 38.492188 L 101.328125 23.835938 C 101.417969 23.601562 101.644531 23.449219 101.898438 23.449219 L 104.671875 23.449219 C 104.925781 23.449219 105.148438 23.601562 105.238281 23.835938 L 110.871094 38.492188 C 111.023438 38.886719 110.730469 39.308594 110.304688 39.308594 L 108.226562 39.308594 C 107.96875 39.308594 107.742188 39.152344 107.65625 38.914062 Z M 106.46875 35.6875 "/>
<path style=" stroke:none;fill-rule:evenodd;fill:rgb(8.627451%,6.666667%,21.960784%);fill-opacity:1;" d="M 148.957031 38.707031 L 148.957031 28.191406 L 144.621094 38.9375 C 144.53125 39.164062 144.316406 39.308594 144.074219 39.308594 L 142.339844 39.308594 C 142.101562 39.308594 141.882812 39.164062 141.792969 38.9375 L 137.460938 28.28125 L 137.460938 38.707031 C 137.460938 39.039062 137.195312 39.308594 136.867188 39.308594 L 135.152344 39.308594 C 134.824219 39.308594 134.558594 39.039062 134.558594 38.707031 L 134.558594 24.050781 C 134.558594 23.71875 134.824219 23.449219 135.152344 23.449219 L 138.164062 23.449219 C 138.402344 23.449219 138.617188 23.59375 138.710938 23.820312 L 143.242188 34.902344 L 147.664062 23.824219 C 147.753906 23.597656 147.96875 23.449219 148.210938 23.449219 L 151.351562 23.449219 C 151.679688 23.449219 151.945312 23.71875 151.945312 24.050781 L 151.945312 38.707031 C 151.945312 39.039062 151.679688 39.308594 151.351562 39.308594 L 149.546875 39.308594 C 149.222656 39.308594 148.957031 39.039062 148.957031 38.707031 "/>
<path style=" stroke:none;fill-rule:evenodd;fill:rgb(8.627451%,6.666667%,21.960784%);fill-opacity:1;" d="M 127.398438 38.707031 L 127.398438 28.191406 L 123.0625 38.9375 C 122.972656 39.164062 122.757812 39.308594 122.515625 39.308594 L 120.78125 39.308594 C 120.542969 39.308594 120.324219 39.164062 120.234375 38.9375 L 115.902344 28.28125 L 115.902344 38.707031 C 115.902344 39.039062 115.636719 39.308594 115.308594 39.308594 L 113.589844 39.308594 C 113.265625 39.308594 113 39.039062 113 38.707031 L 113 24.050781 C 113 23.71875 113.265625 23.449219 113.589844 23.449219 L 116.605469 23.449219 C 116.84375 23.449219 117.058594 23.59375 117.152344 23.820312 L 121.683594 34.902344 L 126.105469 23.824219 C 126.195312 23.597656 126.410156 23.449219 126.652344 23.449219 L 129.792969 23.449219 C 130.121094 23.449219 130.386719 23.71875 130.386719 24.050781 L 130.386719 38.707031 C 130.386719 39.039062 130.121094 39.308594 129.792969 39.308594 L 127.988281 39.308594 C 127.660156 39.308594 127.398438 39.039062 127.398438 38.707031 "/>
<path style=" stroke:none;fill-rule:evenodd;fill:url(#linear0);" d="M 47.785156 8.179688 L 42.113281 11.269531 L 42.65625 13.15625 C 42.664062 13.195312 42.675781 13.230469 42.683594 13.269531 L 42.914062 14.210938 L 49.1875 10.796875 C 50.125 10.304688 52.972656 8.808594 55.433594 8.808594 C 56.550781 8.808594 57.4375 9.109375 58.148438 9.722656 L 61.253906 12.84375 C 58.027344 13.648438 54.242188 17.089844 49.570312 21.339844 L 45.503906 24.804688 L 46.292969 28.027344 L 51.53125 23.5625 C 55.820312 19.664062 59.871094 15.976562 62.320312 15.652344 C 62.355469 15.636719 62.511719 15.605469 62.792969 15.554688 C 63.070312 15.5 63.21875 15.476562 63.234375 15.484375 L 63.242188 15.5 C 63.277344 15.601562 63.308594 15.703125 63.332031 15.804688 C 63.363281 15.816406 63.390625 15.828125 63.414062 15.839844 C 63.796875 16.414062 64.527344 16.644531 65.175781 16.398438 C 65.851562 16.140625 66.242188 15.425781 66.097656 14.714844 C 66.089844 14.683594 66.082031 14.652344 66.074219 14.617188 C 66.066406 14.597656 66.058594 14.574219 66.054688 14.550781 L 66.027344 14.472656 C 65.664062 13.164062 64.625 12.007812 64.113281 11.503906 C 64.03125 11.417969 63.960938 11.355469 63.910156 11.308594 L 60.214844 7.597656 C 60.195312 7.574219 60.171875 7.554688 60.148438 7.535156 C 58.886719 6.410156 57.300781 5.84375 55.433594 5.839844 C 52.238281 5.84375 48.902344 7.59375 47.785156 8.179688 Z M 63.363281 15.765625 Z M 6.605469 7.53125 C 6.582031 7.550781 6.5625 7.574219 6.539062 7.59375 L 2.882812 11.265625 C 2.054688 12.109375 0.726562 13.664062 0.511719 15.027344 C 0.5 15.074219 0.488281 15.125 0.476562 15.171875 C 0.46875 15.242188 0.464844 15.316406 0.464844 15.386719 C 0.464844 16.082031 0.9375 16.703125 1.613281 16.855469 C 2.289062 17.007812 2.96875 16.691406 3.269531 16.066406 C 3.285156 16.035156 3.3125 15.996094 3.347656 15.953125 C 3.359375 15.890625 3.371094 15.828125 3.386719 15.761719 C 3.542969 15.660156 3.910156 15.613281 4.242188 15.632812 C 4.285156 15.636719 4.332031 15.640625 4.378906 15.648438 C 6.816406 15.914062 11.03125 19.753906 15.105469 23.460938 C 15.128906 23.480469 15.148438 23.5 15.171875 23.515625 L 20.542969 27.882812 L 21.34375 24.714844 L 17.074219 21.242188 C 12.613281 17.183594 8.71875 13.640625 5.496094 12.839844 L 8.605469 9.722656 C 9.289062 9.132812 10.152344 8.859375 11.328125 8.859375 C 14.644531 8.859375 18.34375 11.007812 21.355469 12.757812 L 24.011719 14.203125 L 24.257812 13.234375 L 24.808594 11.261719 L 22.808594 10.171875 C 19.527344 8.265625 15.445312 5.890625 11.328125 5.890625 C 9.421875 5.890625 7.832031 6.445312 6.605469 7.53125 Z M 39.070312 12.921875 C 38.84375 13.015625 38.507812 13.144531 38.125 13.285156 L 38.421875 14.328125 L 38.875 16.171875 C 39.578125 15.914062 40.132812 15.695312 40.257812 15.644531 C 40.308594 15.621094 40.359375 15.597656 40.414062 15.570312 L 41.621094 14.914062 L 41.289062 13.566406 L 40.832031 11.964844 Z M 25.757812 13.601562 L 25.410156 14.96875 L 26.621094 15.628906 C 26.648438 15.644531 26.675781 15.65625 26.707031 15.671875 C 27.207031 15.902344 27.679688 16.105469 28.136719 16.28125 L 28.621094 14.363281 L 28.894531 13.390625 C 28.605469 13.273438 28.308594 13.144531 28 13 L 26.199219 12.019531 Z M 35.710938 14.074219 C 35.597656 14.105469 35.492188 14.128906 35.394531 14.148438 C 35.0625 14.21875 34.738281 14.273438 34.414062 14.308594 C 33.035156 14.46875 31.707031 14.332031 30.238281 13.878906 L 29.988281 14.761719 L 29.488281 16.742188 C 31.542969 17.359375 33.464844 17.496094 35.457031 17.15625 C 35.636719 17.125 35.816406 17.089844 35.992188 17.054688 C 36.292969 16.992188 36.632812 16.90625 36.992188 16.800781 C 37.128906 16.757812 37.265625 16.714844 37.40625 16.671875 L 36.933594 14.734375 L 36.664062 13.796875 C 36.324219 13.90625 35.996094 14.003906 35.710938 14.074219 Z M 21.960938 28.5625 L 21.855469 28.953125 L 24.371094 31 L 24.832031 29.320312 L 25.203125 27.851562 L 22.664062 25.789062 Z M 41.761719 27.992188 L 42.539062 31.164062 C 42.710938 31.035156 42.890625 30.90625 43.066406 30.773438 C 43.09375 30.753906 43.117188 30.734375 43.140625 30.714844 L 45.078125 29.0625 L 44.289062 25.839844 Z M 26.207031 29.683594 L 25.582031 31.980469 L 26.109375 32.410156 C 26.160156 32.453125 26.214844 32.492188 26.269531 32.527344 C 28.964844 34.175781 31.292969 34.976562 33.375 34.980469 C 33.378906 34.980469 33.378906 34.976562 33.378906 34.976562 C 33.394531 34.976562 33.410156 34.976562 33.425781 34.976562 C 33.425781 34.976562 33.429688 34.976562 33.433594 34.976562 C 33.449219 34.976562 33.464844 34.976562 33.480469 34.976562 C 33.484375 34.976562 33.484375 34.976562 33.488281 34.976562 C 35.726562 34.945312 38.261719 33.988281 41.175781 32.089844 L 40.425781 29.023438 C 37.757812 30.898438 35.496094 31.898438 33.691406 32.003906 C 33.6875 32.003906 33.6875 32.003906 33.683594 32.003906 C 33.671875 32.003906 33.660156 32.003906 33.648438 32.003906 C 33.644531 32.003906 33.636719 32.003906 33.632812 32.007812 C 33.625 32.007812 33.617188 32.007812 33.605469 32.007812 C 33.597656 32.007812 33.589844 32.007812 33.582031 32.007812 C 33.574219 32.007812 33.570312 32.007812 33.5625 32.007812 C 33.550781 32.007812 33.542969 32.007812 33.53125 32.011719 C 33.527344 32.011719 33.523438 32.011719 33.515625 32.011719 C 33.503906 32.011719 33.492188 32.011719 33.480469 32.011719 C 33.476562 32.011719 33.472656 32.011719 33.46875 32.011719 C 33.457031 32.011719 33.441406 32.011719 33.429688 32.011719 C 33.425781 32.011719 33.425781 32.011719 33.421875 32.011719 C 33.410156 32.011719 33.394531 32.011719 33.378906 32.011719 C 33.378906 32.011719 33.375 32.011719 33.375 32.011719 C 31.894531 32.011719 30.050781 31.351562 27.902344 30.046875 L 26.417969 28.839844 Z M 26.207031 29.683594 "/>
<path style=" stroke:none;fill-rule:evenodd;fill:url(#linear1);" d="M 26.160156 0 C 25.429688 0 24.808594 0.476562 24.617188 1.195312 C 24.429688 1.910156 24.734375 2.632812 25.367188 2.988281 C 25.394531 3.003906 26.023438 3.382812 26.574219 4.226562 C 27.066406 4.980469 27.582031 6.277344 27.273438 8.175781 L 25.757812 13.601562 L 21.960938 28.5625 L 20.371094 34.410156 C 20.089844 35.578125 19.382812 36.390625 18.332031 36.753906 C 17.929688 36.894531 17.507812 36.960938 17.078125 36.960938 C 16.039062 36.960938 14.949219 36.566406 13.992188 35.816406 C 11.214844 33.640625 9.902344 30.976562 7.292969 25.671875 L 4.746094 20.621094 C 3.585938 18.269531 3.089844 16.941406 3.390625 15.746094 L 0.511719 15.027344 C -0.0585938 17.308594 0.84375 19.414062 2.089844 21.945312 L 4.359375 26.425781 L 4.632812 26.976562 C 7.351562 32.507812 8.851562 35.554688 12.164062 38.152344 C 13.640625 39.3125 15.363281 39.921875 17.050781 39.929688 L 17.109375 39.929688 C 17.117188 39.929688 17.121094 39.929688 17.125 39.929688 C 17.867188 39.925781 18.601562 39.800781 19.304688 39.554688 C 21.300781 38.863281 22.738281 37.238281 23.242188 35.144531 L 24.828125 29.320312 L 28.621094 14.363281 L 30.148438 8.898438 C 30.164062 8.851562 30.171875 8.800781 30.183594 8.753906 C 30.632812 6.132812 29.988281 4.207031 29.277344 2.964844 L 31.492188 2.964844 C 35.257812 2.964844 35.703125 4.667969 36.226562 6.667969 L 38.421875 14.328125 L 43.496094 35.09375 C 44.003906 37.230469 45.4375 38.855469 47.433594 39.554688 C 48.15625 39.804688 48.910156 39.929688 49.671875 39.929688 C 51.371094 39.929688 53.101562 39.316406 54.589844 38.152344 C 57.890625 35.566406 58.992188 33.320312 61.660156 27.894531 L 64.824219 21.613281 C 65.585938 20.070312 66.128906 18.710938 66.3125 17.414062 C 66.3125 17.414062 66.3125 17.414062 66.3125 17.410156 C 66.3125 17.40625 66.3125 17.398438 66.316406 17.394531 C 66.316406 17.390625 66.316406 17.382812 66.316406 17.378906 C 66.316406 17.378906 66.316406 17.375 66.316406 17.371094 C 66.445312 16.417969 66.375 15.496094 66.054688 14.550781 C 66.050781 14.542969 66.046875 14.535156 66.042969 14.523438 L 63.242188 15.5 C 63.636719 16.628906 63.355469 17.886719 62.171875 20.289062 L 59.308594 25.960938 L 59 26.585938 C 56.402344 31.871094 55.527344 33.648438 52.757812 35.816406 C 51.804688 36.566406 50.714844 36.964844 49.675781 36.964844 C 49.242188 36.964844 48.816406 36.894531 48.414062 36.753906 C 47.363281 36.386719 46.660156 35.574219 46.382812 34.398438 L 41.289062 13.566406 L 39.085938 5.886719 C 38.550781 3.828125 37.554688 0 31.492188 0 Z M 26.832031 0.410156 C 26.832031 0.410156 26.835938 0.410156 26.839844 0.414062 C 26.835938 0.410156 26.832031 0.410156 26.832031 0.410156 Z M 26.832031 0.410156 "/>
</g>
</svg>
